<svg width="160" height="120" fill="none" xmlns="http://www.w3.org/2000/svg">
<symbol id="crown" viewbox="0 0 90 90">
<rect width="160" height="120" fill="none"/>
<rect width="160" height="120" fill="none"/>
<path d="M139.102 42.7638L120.725 99.3091C120.591 99.7211 120.207 100 119.774 100H41.2151C40.7874 100 40.4071 99.728 40.2688 99.3233L20.963 42.8186C20.653 41.9113 21.6741 41.13 22.4688 41.6664L58.9951 66.3217C59.5161 66.6734 60.2286 66.4628 60.4747 65.8844L79.0798 22.1624C79.4251 21.3511 80.5749 21.3511 80.9202 22.1624L99.5253 65.8844C99.7714 66.4628 100.484 66.6734 101.005 66.3217L137.591 41.6259C138.38 41.0937 139.396 41.8592 139.102 42.7638Z" fill="white" stroke="black" stroke-width="5"/>
<path d="M114.783 108H45.2174C38.2609 108 38.2609 110 45.2174 110H114.783C121.739 110 121.739 108 114.783 108Z" stroke="black" stroke-width="5"/>
</symbol>
</svg>