<svg width="160" height="172" viewBox="0 0 160 172" fill="none" xmlns="http://www.w3.org/2000/svg">
<rect width="160" height="172" fill="#1E1E1E"/>
<rect width="160" height="172" fill="white"/>
<path d="M139.102 91.2638L120.725 147.809C120.591 148.221 120.207 148.5 119.774 148.5H41.2151C40.7874 148.5 40.4071 148.228 40.2688 147.823L20.963 91.3186C20.653 90.4113 21.6741 89.63 22.4688 90.1664L59.0071 114.83C59.5241 115.179 60.231 114.974 60.482 114.403L79.0845 72.0827C79.4348 71.2859 80.5652 71.2859 80.9155 72.0827L99.518 114.403C99.769 114.974 100.476 115.179 100.993 114.83L137.591 90.1259C138.38 89.5937 139.396 90.3592 139.102 91.2638Z" fill="white" stroke="black" stroke-width="5"/>
<path d="M114.783 158H45.2174C38.2609 158 38.2609 160 45.2174 160H114.783C121.739 160 121.739 158 114.783 158Z" stroke="black" stroke-width="5"/>
</svg>
